# xmcd CD database file
#
# Track frame offsets:
#	150
#	16153
#	40808
#	71345
#	91242
#	112550
#	133514
#	150706
#	172460
#
# Disc length: 2643 seconds
#
# Revision: 0
# Processed by: cddbd v1.5.1PL0 Copyright (c) Steve Scherf et al.
# Submitted via: CDex 1.51
#
DISCID=670a5109
DTITLE=Miami University Steel Band - One More Soca
DYEAR=1900
DGENRE=Steel Drum
TTITLE0=Jump Up
TTITLE1=Hangin' In There
TTITLE2=Sweet Nothings
TTITLE3=Kimba
TTITLE4=Samba de Arcata
TTITLE5=One More Soca
TTITLE6=Fall From Grace
TTITLE7=When Last We Spoke
TTITLE8=Give 'im Up
EXTD=
EXTT0=
EXTT1=
EXTT2=
EXTT3=
EXTT4=
EXTT5=
EXTT6=
EXTT7=
EXTT8=
PLAYORDER=
